<svg width="67" height="33" viewBox="0 0 67 33" fill="none" xmlns="http://www.w3.org/2000/svg">
<rect x="9.75" y="8.08008" width="16" height="16" rx="4" fill="black"/>
<rect x="10.25" y="8.58008" width="15" height="15" rx="3.5" stroke="#D6EBFD" stroke-opacity="0.19"/>
<path fill-rule="evenodd" clip-rule="evenodd" d="M23.5837 16.5298C23.5837 19.1809 20.972 21.3301 17.7503 21.3301C14.5287 21.3301 11.917 19.1809 11.917 16.5298C11.917 14.8861 12.917 13.4342 14.4537 12.5731C14.97 12.2838 15.4209 11.9921 15.8225 11.7322C16.616 11.2189 17.2169 10.8301 17.7503 10.8301C18.2754 10.8301 18.7506 11.1376 19.5213 11.6364C19.9298 11.9007 20.4212 12.2187 21.047 12.5731C22.5836 13.4342 23.5837 14.8861 23.5837 16.5298ZM17.2704 11.2712C17.2728 11.6828 17.1902 12.09 17.0282 12.4651C16.8662 12.8403 16.6288 13.1744 16.3321 13.4448C16.2854 13.4883 16.3221 13.572 16.3821 13.5476C16.9438 13.3193 17.7021 12.636 17.3821 11.2573C17.3688 11.1788 17.2704 11.1997 17.2704 11.2712ZM17.6488 11.2712C17.8527 11.6192 17.9823 12.0092 18.0286 12.4144C18.0749 12.8197 18.0369 13.2306 17.9171 13.6191C17.8971 13.6801 17.9688 13.7324 18.0087 13.6818C18.3737 13.1938 18.6921 12.2246 17.7388 11.1788C17.6904 11.1335 17.6154 11.2032 17.6488 11.2642V11.2712ZM18.1088 11.2416C18.4281 11.478 18.6953 11.7834 18.8922 12.137C19.0891 12.4906 19.2113 12.8842 19.2504 13.2914C19.2487 13.3061 19.2525 13.3208 19.261 13.3327C19.2694 13.3445 19.2819 13.3525 19.2959 13.355C19.3098 13.3574 19.3241 13.3542 19.3358 13.3459C19.3475 13.3377 19.3557 13.325 19.3588 13.3106C19.5121 12.7022 19.4254 11.6651 18.1637 11.1265C18.0971 11.0987 18.0538 11.1928 18.1088 11.2346V11.2416ZM15.0321 13.0543C15.412 12.9356 15.7637 12.7346 16.0643 12.4643C16.365 12.194 16.6079 11.8606 16.7771 11.4856C16.8071 11.4229 16.9021 11.4473 16.8871 11.517C16.5988 12.9114 15.6338 13.2025 15.0338 13.1641C14.9704 13.1659 14.9721 13.0735 15.0321 13.0543ZM16.211 16.9091C16.0597 17.0144 15.882 17.0704 15.7003 17.0701C15.457 17.0696 15.2239 16.9682 15.052 16.7881C14.8802 16.6081 14.7836 16.3641 14.7836 16.1097C14.7836 15.9197 14.8375 15.7339 14.9385 15.5759C15.0395 15.4179 15.183 15.2949 15.3509 15.2222C15.5188 15.1495 15.7036 15.1306 15.8817 15.1679C16.0599 15.205 16.2236 15.2967 16.3519 15.4312C16.4803 15.5656 16.5676 15.737 16.6029 15.9233C16.6381 16.1098 16.6197 16.3029 16.5499 16.4784C16.4802 16.6538 16.3622 16.8038 16.211 16.9091ZM20.3406 16.9116C20.1887 17.0163 20.0106 17.0715 19.8286 17.0701C19.5861 17.0687 19.354 16.9669 19.1831 16.7868C19.0122 16.6068 18.9165 16.3633 18.917 16.1097C18.917 15.9194 18.971 15.7335 19.0722 15.5754C19.1734 15.4173 19.3172 15.2942 19.4855 15.2217C19.6536 15.1493 19.8386 15.1306 20.0169 15.1683C20.1953 15.2059 20.3589 15.2981 20.487 15.433C20.6152 15.5681 20.7021 15.7398 20.7368 15.9266C20.7715 16.1134 20.7523 16.3067 20.6818 16.4821C20.6113 16.6574 20.4925 16.8069 20.3406 16.9116ZM17.0237 18.7067C17.2263 18.907 17.4877 19.0299 17.7654 19.0554C18.0425 19.0295 18.3033 18.9067 18.5054 18.7067C18.7634 18.4785 18.945 18.1702 19.0237 17.8265C19.0297 17.7961 19.0291 17.7646 19.0219 17.7344C19.0146 17.7042 19.001 17.6761 18.982 17.6522C18.959 17.6236 18.9301 17.6008 18.8975 17.5855C18.8649 17.5701 18.8295 17.5625 18.7937 17.5633H16.7371C16.7013 17.5622 16.6657 17.5696 16.6331 17.585C16.6004 17.6004 16.5716 17.6233 16.5487 17.6522C16.5295 17.6761 16.5157 17.7041 16.5082 17.7342C16.5007 17.7644 16.4997 17.7959 16.5054 17.8265C16.5841 18.1702 16.7657 18.4785 17.0237 18.7067Z" fill="#F1F7FE" fill-opacity="0.71"/>
<path d="M17.0833 18.637C17.2701 18.825 17.512 18.9418 17.77 18.9681C18.0274 18.9413 18.2687 18.8247 18.455 18.637C18.5146 18.5789 18.5702 18.5166 18.6216 18.4505C18.519 18.3287 18.3936 18.2301 18.2531 18.1608C18.1127 18.0916 17.9602 18.0532 17.805 18.0479C17.639 18.0519 17.4763 18.0982 17.3312 18.1826C17.186 18.267 17.0626 18.3871 16.9717 18.5324C17.01 18.569 17.0433 18.6038 17.0833 18.637Z" fill="#F1F7FE" fill-opacity="0.71"/>
<path fill-rule="evenodd" clip-rule="evenodd" d="M15.4166 16.1708C15.4849 16.1712 15.5517 16.1503 15.6087 16.1108C15.6657 16.0714 15.7101 16.0152 15.7365 15.9493C15.7629 15.8834 15.7699 15.8108 15.7568 15.7407C15.7437 15.6706 15.711 15.6061 15.6628 15.5555C15.6146 15.5049 15.5531 15.4703 15.4862 15.4563C15.4192 15.4422 15.3497 15.4492 15.2866 15.4765C15.2235 15.5038 15.1695 15.55 15.1315 15.6094C15.0935 15.6687 15.0732 15.7386 15.0732 15.81C15.0732 15.9054 15.1094 15.9969 15.1737 16.0645C15.238 16.1321 15.3254 16.1703 15.4166 16.1708ZM19.5449 16.1708C19.6132 16.1712 19.6801 16.1503 19.737 16.1108C19.794 16.0714 19.8384 16.0152 19.8648 15.9493C19.8912 15.8834 19.8983 15.8108 19.8852 15.7407C19.872 15.6706 19.8393 15.6061 19.7911 15.5555C19.743 15.5049 19.6815 15.4703 19.6145 15.4563C19.5475 15.4422 19.4781 15.4492 19.4149 15.4765C19.3518 15.5038 19.2978 15.55 19.2598 15.6094C19.2219 15.6687 19.2016 15.7386 19.2016 15.81C19.2016 15.9048 19.2372 15.9958 19.3008 16.0633C19.3645 16.1309 19.4509 16.1695 19.5416 16.1708H19.5449Z" fill="#F1F7FE" fill-opacity="0.71"/>
<path d="M33.1645 20.5801V10.3983H36.7241C37.4334 10.3983 38.0184 10.5209 38.4791 10.7662C38.9398 11.0081 39.2829 11.3346 39.5082 11.7456C39.7336 12.1532 39.8463 12.6056 39.8463 13.1028C39.8463 13.5403 39.7684 13.9016 39.6126 14.1866C39.4602 14.4716 39.258 14.697 39.0061 14.8627C38.7575 15.0285 38.4874 15.1511 38.1957 15.2306V15.3301C38.5073 15.35 38.8205 15.4593 39.1354 15.6582C39.4502 15.8571 39.7137 16.1421 39.9258 16.5133C40.138 16.8845 40.244 17.3386 40.244 17.8755C40.244 18.3859 40.128 18.845 39.896 19.2527C39.664 19.6603 39.2978 19.9835 38.7973 20.2221C38.2968 20.4608 37.6455 20.5801 36.8435 20.5801H33.1645ZM34.3974 19.4863H36.8435C37.6489 19.4863 38.2206 19.3306 38.5587 19.019C38.9 18.7041 39.0707 18.323 39.0707 17.8755C39.0707 17.5308 38.9829 17.2127 38.8072 16.921C38.6316 16.626 38.3813 16.3907 38.0565 16.215C37.7317 16.036 37.3473 15.9466 36.9031 15.9466H34.3974V19.4863ZM34.3974 14.8727H36.6844C37.0556 14.8727 37.3903 14.7998 37.6886 14.6539C37.9902 14.5081 38.2289 14.3026 38.4045 14.0375C38.5835 13.7723 38.673 13.4608 38.673 13.1028C38.673 12.6554 38.5172 12.2759 38.2057 11.9643C37.8941 11.6494 37.4003 11.492 36.7241 11.492H34.3974V14.8727ZM46.9234 17.4579V12.9437H48.0967V20.5801H46.9234V19.2875H46.8438C46.6648 19.6752 46.3864 20.005 46.0086 20.2768C45.6307 20.5453 45.1535 20.6795 44.5768 20.6795C44.0995 20.6795 43.6753 20.5751 43.304 20.3663C42.9328 20.1542 42.6412 19.836 42.429 19.4118C42.2169 18.9842 42.1109 18.4456 42.1109 17.796V12.9437H43.2842V17.7164C43.2842 18.2733 43.4399 18.7174 43.7515 19.0488C44.0664 19.3803 44.4674 19.546 44.9546 19.546C45.2463 19.546 45.5429 19.4714 45.8445 19.3223C46.1495 19.1731 46.4047 18.9444 46.6102 18.6362C46.819 18.3279 46.9234 17.9352 46.9234 17.4579ZM51.4189 15.9863V20.5801H50.2456V12.9437H51.3792V14.1369H51.4786C51.6576 13.7491 51.9293 13.4376 52.2939 13.2022C52.6585 12.9636 53.1292 12.8443 53.7059 12.8443C54.2229 12.8443 54.6753 12.9503 55.0631 13.1625C55.4509 13.3713 55.7525 13.6895 55.9679 14.117C56.1834 14.5413 56.2911 15.0782 56.2911 15.7278V20.5801H55.1178V15.8074C55.1178 15.2074 54.962 14.7401 54.6505 14.4054C54.3389 14.0673 53.9113 13.8983 53.3678 13.8983C52.9933 13.8983 52.6585 13.9795 52.3635 14.1419C52.0719 14.3043 51.8415 14.5413 51.6725 14.8528C51.5034 15.1644 51.4189 15.5422 51.4189 15.9863Z" fill="#F1F7FE" fill-opacity="0.71"/>
</svg>
