<svg width="93" height="33" viewBox="0 0 93 33" fill="none" xmlns="http://www.w3.org/2000/svg">
<rect x="9.28027" y="8.08008" width="16" height="16" rx="4" fill="black"/>
<rect x="9.78027" y="8.58008" width="15" height="15" rx="3.5" stroke="#D6EBFD" stroke-opacity="0.19"/>
<path fill-rule="evenodd" clip-rule="evenodd" d="M15.1136 12.7388C14.4168 12.6619 13.735 12.9228 13.2027 13.4438C12.6727 13.9626 12.3256 14.7032 12.2144 15.5128C12.1032 16.3228 12.2336 17.1598 12.5861 17.8611C12.9385 18.5622 13.4954 19.0905 14.1627 19.316C14.8347 19.5431 15.5473 19.4385 16.1521 19.0352C16.5732 18.7545 16.9177 18.3457 17.1613 17.8611L16.6401 17.5991C16.4357 18.0058 16.1547 18.3324 15.8286 18.5499C15.3666 18.8579 14.8416 18.9297 14.3495 18.7634C13.8529 18.5956 13.4039 18.1891 13.1073 17.5991C12.9209 17.2282 12.8064 16.807 12.7709 16.3715H17.2799H17.5716V16.0798C17.5716 15.2587 17.3302 14.459 16.8838 13.8395C16.4367 13.2189 15.8085 12.8155 15.1136 12.7388ZM16.9764 15.7881H12.7709C12.7763 15.7228 12.7834 15.6574 12.7923 15.5922C12.8885 14.8919 13.1861 14.2764 13.6108 13.8607C14.0332 13.4472 14.5466 13.2631 15.0496 13.3187C15.5546 13.3744 16.0436 13.6712 16.4105 14.1805C16.7275 14.6204 16.9274 15.1847 16.9764 15.7881ZM17.9176 13.1868L19.984 16.0798L17.9176 18.9727L18.3923 19.3118L20.3424 16.5816L22.2926 19.3118L22.7673 18.9727L20.7009 16.0798L22.7673 13.1868L22.2926 12.8478L20.3424 15.578L18.3923 12.8478L17.9176 13.1868Z" fill="#F1F7FE" fill-opacity="0.71"/>
<path d="M32.7018 20.5801V10.3983H38.8467V11.492H33.9348V14.9324H38.5285V16.0261H33.9348V19.4863H38.9263V20.5801H32.7018ZM41.7849 12.9437L43.6145 16.0659L45.444 12.9437H46.7963L44.3304 16.7619L46.7963 20.5801H45.444L43.6145 17.617L41.7849 20.5801H40.4327L42.8588 16.7619L40.4327 12.9437H41.7849ZM48.4705 23.4437V12.9437H49.604V14.1568H49.7432C49.8294 14.0242 49.9487 13.8552 50.1012 13.6497C50.2569 13.4409 50.479 13.2553 50.7673 13.0929C51.059 12.9271 51.4534 12.8443 51.9506 12.8443C52.5936 12.8443 53.1603 13.005 53.6509 13.3265C54.1414 13.648 54.5242 14.1038 54.7993 14.6937C55.0744 15.2837 55.212 15.9797 55.212 16.7818C55.212 17.5905 55.0744 18.2915 54.7993 18.8848C54.5242 19.4747 54.1431 19.9321 53.6558 20.2569C53.1686 20.5784 52.6068 20.7392 51.9705 20.7392C51.4799 20.7392 51.0872 20.658 50.7922 20.4956C50.4972 20.3298 50.2702 20.1426 50.1111 19.9338C49.952 19.7217 49.8294 19.546 49.7432 19.4068H49.6438V23.4437H48.4705ZM49.6239 16.7619C49.6239 17.3386 49.7084 17.8474 49.8774 18.2882C50.0465 18.7257 50.2934 19.0687 50.6182 19.3173C50.943 19.5626 51.3407 19.6852 51.8114 19.6852C52.3019 19.6852 52.7112 19.5559 53.0394 19.2974C53.3708 19.0356 53.6194 18.6842 53.7851 18.2434C53.9541 17.7993 54.0387 17.3055 54.0387 16.7619C54.0387 16.225 53.9558 15.7411 53.7901 15.3102C53.6277 14.876 53.3807 14.533 53.0493 14.2811C52.7212 14.0259 52.3085 13.8983 51.8114 13.8983C51.3341 13.8983 50.9331 14.0192 50.6083 14.2612C50.2834 14.4998 50.0382 14.8346 49.8725 15.2654C49.7067 15.693 49.6239 16.1918 49.6239 16.7619ZM57.0017 20.5801V12.9437H58.1352V14.0971H58.2148C58.354 13.7193 58.6059 13.4127 58.9705 13.1774C59.3351 12.9421 59.746 12.8244 60.2034 12.8244C60.2896 12.8244 60.3973 12.8261 60.5266 12.8294C60.6558 12.8327 60.7536 12.8377 60.8199 12.8443V14.0375C60.7801 14.0275 60.689 14.0126 60.5465 13.9927C60.4073 13.9695 60.2598 13.9579 60.104 13.9579C59.7328 13.9579 59.4013 14.0358 59.1097 14.1916C58.8213 14.344 58.5926 14.5562 58.4236 14.8279C58.2579 15.0964 58.175 15.403 58.175 15.7477V20.5801H57.0017ZM65.18 20.7392C64.4442 20.7392 63.8095 20.5768 63.2759 20.252C62.7456 19.9238 62.3362 19.4664 62.0479 18.8798C61.7629 18.2898 61.6203 17.6038 61.6203 16.8216C61.6203 16.0394 61.7629 15.35 62.0479 14.7534C62.3362 14.1535 62.7373 13.6861 63.251 13.3514C63.7681 13.0133 64.3713 12.8443 65.0607 12.8443C65.4584 12.8443 65.8512 12.9106 66.2389 13.0431C66.6267 13.1757 66.9797 13.3912 67.2979 13.6895C67.6161 13.9844 67.8696 14.3755 68.0585 14.8627C68.2475 15.35 68.3419 15.9499 68.3419 16.6625V17.1596H62.4556V16.1454H67.1487C67.1487 15.7145 67.0626 15.3301 66.8902 14.992C66.7212 14.6539 66.4792 14.3871 66.1644 14.1916C65.8528 13.996 65.4849 13.8983 65.0607 13.8983C64.5933 13.8983 64.189 14.0143 63.8476 14.2463C63.5095 14.475 63.2494 14.7733 63.0671 15.1412C62.8848 15.5091 62.7936 15.9035 62.7936 16.3244V17.0005C62.7936 17.5772 62.8931 18.0661 63.0919 18.4672C63.2941 18.8649 63.5742 19.1681 63.9321 19.377C64.2901 19.5824 64.706 19.6852 65.18 19.6852C65.4882 19.6852 65.7666 19.6421 66.0152 19.5559C66.2671 19.4664 66.4842 19.3339 66.6665 19.1582C66.8488 18.9792 66.9897 18.7572 67.0891 18.492L68.2226 18.8102C68.1033 19.1947 67.9028 19.5327 67.621 19.8244C67.3393 20.1127 66.9913 20.3381 66.577 20.5005C66.1627 20.6596 65.697 20.7392 65.18 20.7392ZM75.5358 14.6539L74.4818 14.9522C74.4155 14.7766 74.3178 14.6059 74.1885 14.4402C74.0626 14.2711 73.8902 14.1319 73.6715 14.0225C73.4527 13.9132 73.1727 13.8585 72.8313 13.8585C72.3639 13.8585 71.9745 13.9662 71.6629 14.1816C71.3547 14.3938 71.2006 14.6639 71.2006 14.992C71.2006 15.2837 71.3066 15.514 71.5188 15.6831C71.7309 15.8521 72.0623 15.993 72.5131 16.1056L73.6466 16.3841C74.3294 16.5498 74.8381 16.8033 75.1729 17.1447C75.5076 17.4828 75.675 17.9186 75.675 18.4522C75.675 18.8897 75.5491 19.2808 75.2972 19.6255C75.0486 19.9702 74.7006 20.242 74.2531 20.4409C73.8057 20.6397 73.2853 20.7392 72.6921 20.7392C71.9132 20.7392 71.2685 20.5701 70.7581 20.2321C70.2477 19.894 69.9245 19.4002 69.7887 18.7505L70.9023 18.4721C71.0084 18.8831 71.2089 19.1913 71.5039 19.3968C71.8022 19.6023 72.1916 19.7051 72.6722 19.7051C73.2191 19.7051 73.6532 19.5891 73.9747 19.3571C74.2995 19.1217 74.462 18.84 74.462 18.5119C74.462 18.2467 74.3691 18.0247 74.1835 17.8457C73.9979 17.6634 73.7129 17.5275 73.3284 17.438L72.0557 17.1397C71.3564 16.974 70.8426 16.7172 70.5145 16.3691C70.1897 16.0178 70.0273 15.5787 70.0273 15.0517C70.0273 14.6208 70.1483 14.2396 70.3902 13.9082C70.6355 13.5768 70.9686 13.3166 71.3895 13.1277C71.8138 12.9387 72.2943 12.8443 72.8313 12.8443C73.587 12.8443 74.1802 13.01 74.6111 13.3414C75.0453 13.6729 75.3535 14.1104 75.5358 14.6539ZM82.8503 14.6539L81.7963 14.9522C81.73 14.7766 81.6322 14.6059 81.503 14.4402C81.377 14.2711 81.2047 14.1319 80.9859 14.0225C80.7672 13.9132 80.4871 13.8585 80.1457 13.8585C79.6784 13.8585 79.289 13.9662 78.9774 14.1816C78.6692 14.3938 78.515 14.6639 78.515 14.992C78.515 15.2837 78.6211 15.514 78.8332 15.6831C79.0453 15.8521 79.3768 15.993 79.8275 16.1056L80.9611 16.3841C81.6438 16.5498 82.1526 16.8033 82.4873 17.1447C82.8221 17.4828 82.9895 17.9186 82.9895 18.4522C82.9895 18.8897 82.8635 19.2808 82.6116 19.6255C82.3631 19.9702 82.015 20.242 81.5676 20.4409C81.1202 20.6397 80.5998 20.7392 80.0065 20.7392C79.2276 20.7392 78.583 20.5701 78.0726 20.2321C77.5622 19.894 77.239 19.4002 77.1031 18.7505L78.2167 18.4721C78.3228 18.8831 78.5233 19.1913 78.8183 19.3968C79.1166 19.6023 79.506 19.7051 79.9866 19.7051C80.5335 19.7051 80.9677 19.5891 81.2892 19.3571C81.614 19.1217 81.7764 18.84 81.7764 18.5119C81.7764 18.2467 81.6836 18.0247 81.498 17.8457C81.3124 17.6634 81.0274 17.5275 80.6429 17.438L79.3702 17.1397C78.6708 16.974 78.1571 16.7172 77.829 16.3691C77.5042 16.0178 77.3417 15.5787 77.3417 15.0517C77.3417 14.6208 77.4627 14.2396 77.7047 13.9082C77.9499 13.5768 78.283 13.3166 78.704 13.1277C79.1282 12.9387 79.6088 12.8443 80.1457 12.8443C80.9014 12.8443 81.4947 13.01 81.9256 13.3414C82.3597 13.6729 82.668 14.1104 82.8503 14.6539Z" fill="#F1F7FE" fill-opacity="0.71"/>
</svg>
