<svg width="86" height="33" viewBox="0 0 86 33" fill="none" xmlns="http://www.w3.org/2000/svg">
<rect x="9.23047" y="8.08008" width="16" height="16" rx="4" fill="black"/>
<rect x="9.73047" y="8.58008" width="15" height="15" rx="3.5" stroke="#D6EBFD" stroke-opacity="0.19"/>
<path d="M14.7557 12.3613C14.8339 12.3613 14.9068 12.3988 14.9499 12.461L20.9492 21.1113H20.4706L14.8808 14.1203V19.2607C14.8808 19.3836 14.7766 19.4832 14.6479 19.4832H14.1821C14.0535 19.4832 13.9492 19.3836 13.9492 19.2607V12.5839C13.9492 12.461 14.0535 12.3613 14.1821 12.3613H14.7557Z" fill="#F1F7FE" fill-opacity="0.71"/>
<path d="M20.4707 12.5839V18.1747L19.5391 16.8595V12.5839C19.5391 12.461 19.6434 12.3613 19.772 12.3613H20.2378C20.3664 12.3613 20.4707 12.461 20.4707 12.5839Z" fill="#F1F7FE" fill-opacity="0.71"/>
<path d="M40.7155 10.3983V20.5801H39.5223L33.974 12.5858H33.8746V20.5801H32.6416V10.3983H33.8348L39.403 18.4125H39.5024V10.3983H40.7155ZM46.2253 20.7392C45.4895 20.7392 44.8548 20.5768 44.3212 20.252C43.7909 19.9238 43.3815 19.4664 43.0932 18.8798C42.8081 18.2898 42.6656 17.6038 42.6656 16.8216C42.6656 16.0394 42.8081 15.35 43.0932 14.7534C43.3815 14.1535 43.7826 13.6861 44.2963 13.3514C44.8133 13.0133 45.4166 12.8443 46.106 12.8443C46.5037 12.8443 46.8964 12.9106 47.2842 13.0431C47.672 13.1757 48.025 13.3912 48.3432 13.6895C48.6614 13.9844 48.9149 14.3755 49.1038 14.8627C49.2928 15.35 49.3872 15.9499 49.3872 16.6625V17.1596H43.5008V16.1454H48.194C48.194 15.7145 48.1079 15.3301 47.9355 14.992C47.7665 14.6539 47.5245 14.3871 47.2097 14.1916C46.8981 13.996 46.5302 13.8983 46.106 13.8983C45.6386 13.8983 45.2343 14.0143 44.8929 14.2463C44.5548 14.475 44.2946 14.7733 44.1124 15.1412C43.9301 15.5091 43.8389 15.9035 43.8389 16.3244V17.0005C43.8389 17.5772 43.9383 18.0661 44.1372 18.4672C44.3394 18.8649 44.6195 19.1681 44.9774 19.377C45.3354 19.5824 45.7513 19.6852 46.2253 19.6852C46.5335 19.6852 46.8119 19.6421 47.0605 19.5559C47.3124 19.4664 47.5295 19.3339 47.7118 19.1582C47.8941 18.9792 48.0349 18.7572 48.1344 18.492L49.2679 18.8102C49.1486 19.1947 48.9481 19.5327 48.6663 19.8244C48.3846 20.1127 48.0366 20.3381 47.6223 20.5005C47.208 20.6596 46.7423 20.7392 46.2253 20.7392ZM51.8419 12.9437L53.6715 16.0659L55.501 12.9437H56.8533L54.3874 16.7619L56.8533 20.5801H55.501L53.6715 17.617L51.8419 20.5801H50.4897L52.9158 16.7619L50.4897 12.9437H51.8419ZM61.8485 12.9437V13.938H57.8911V12.9437H61.8485ZM59.0445 11.1142H60.2178V18.3926C60.2178 18.724 60.2659 18.9726 60.362 19.1383C60.4614 19.3007 60.5874 19.4101 60.7398 19.4664C60.8956 19.5195 61.0597 19.546 61.232 19.546C61.3613 19.546 61.4673 19.5394 61.5502 19.5261C61.6331 19.5095 61.6994 19.4963 61.7491 19.4863L61.9877 20.5403C61.9082 20.5701 61.7971 20.6 61.6546 20.6298C61.5121 20.6629 61.3315 20.6795 61.1127 20.6795C60.7813 20.6795 60.4565 20.6083 60.1383 20.4657C59.8234 20.3232 59.5616 20.1061 59.3528 19.8145C59.1473 19.5228 59.0445 19.1549 59.0445 18.7108V11.1142ZM64.4685 20.6596C64.2233 20.6596 64.0128 20.5718 63.8371 20.3961C63.6615 20.2205 63.5736 20.01 63.5736 19.7647C63.5736 19.5195 63.6615 19.309 63.8371 19.1333C64.0128 18.9577 64.2233 18.8699 64.4685 18.8699C64.7138 18.8699 64.9243 18.9577 65.0999 19.1333C65.2756 19.309 65.3634 19.5195 65.3634 19.7647C65.3634 19.9271 65.322 20.0763 65.2391 20.2122C65.1596 20.3481 65.0519 20.4574 64.916 20.5403C64.7834 20.6199 64.6343 20.6596 64.4685 20.6596ZM67.4689 12.9437H68.6422V21.1369C68.6422 21.6075 68.561 22.0152 68.3986 22.3599C68.2395 22.7046 67.9975 22.9714 67.6727 23.1603C67.3512 23.3493 66.9452 23.4437 66.4547 23.4437C66.4149 23.4437 66.3751 23.4437 66.3354 23.4437C66.2956 23.4437 66.2558 23.4437 66.216 23.4437V22.35C66.2558 22.35 66.2923 22.35 66.3254 22.35C66.3586 22.35 66.395 22.35 66.4348 22.35C66.7928 22.35 67.0546 22.2439 67.2203 22.0318C67.386 21.823 67.4689 21.5247 67.4689 21.1369V12.9437ZM68.0456 11.671C67.8169 11.671 67.6197 11.5931 67.454 11.4373C67.2916 11.2815 67.2104 11.0943 67.2104 10.8755C67.2104 10.6568 67.2916 10.4695 67.454 10.3137C67.6197 10.158 67.8169 10.0801 68.0456 10.0801C68.2743 10.0801 68.4698 10.158 68.6322 10.3137C68.798 10.4695 68.8808 10.6568 68.8808 10.8755C68.8808 11.0943 68.798 11.2815 68.6322 11.4373C68.4698 11.5931 68.2743 11.671 68.0456 11.671ZM76.2002 14.6539L75.1463 14.9522C75.08 14.7766 74.9822 14.6059 74.8529 14.4402C74.727 14.2711 74.5546 14.1319 74.3359 14.0225C74.1171 13.9132 73.8371 13.8585 73.4957 13.8585C73.0284 13.8585 72.6389 13.9662 72.3274 14.1816C72.0191 14.3938 71.865 14.6639 71.865 14.992C71.865 15.2837 71.9711 15.514 72.1832 15.6831C72.3953 15.8521 72.7268 15.993 73.1775 16.1056L74.311 16.3841C74.9938 16.5498 75.5026 16.8033 75.8373 17.1447C76.1721 17.4828 76.3394 17.9186 76.3394 18.4522C76.3394 18.8897 76.2135 19.2808 75.9616 19.6255C75.713 19.9702 75.365 20.242 74.9176 20.4409C74.4701 20.6397 73.9498 20.7392 73.3565 20.7392C72.5776 20.7392 71.933 20.5701 71.4225 20.2321C70.9121 19.894 70.589 19.4002 70.4531 18.7505L71.5667 18.4721C71.6728 18.8831 71.8733 19.1913 72.1683 19.3968C72.4666 19.6023 72.856 19.7051 73.3366 19.7051C73.8835 19.7051 74.3177 19.5891 74.6392 19.3571C74.964 19.1217 75.1264 18.84 75.1264 18.5119C75.1264 18.2467 75.0336 18.0247 74.848 17.8457C74.6624 17.6634 74.3773 17.5275 73.9929 17.438L72.7201 17.1397C72.0208 16.974 71.5071 16.7172 71.1789 16.3691C70.8541 16.0178 70.6917 15.5787 70.6917 15.0517C70.6917 14.6208 70.8127 14.2396 71.0546 13.9082C71.2999 13.5768 71.633 13.3166 72.0539 13.1277C72.4782 12.9387 72.9588 12.8443 73.4957 12.8443C74.2514 12.8443 74.8447 13.01 75.2755 13.3414C75.7097 13.6729 76.018 14.1104 76.2002 14.6539Z" fill="#F1F7FE" fill-opacity="0.71"/>
</svg>
