<svg width="92" height="33" viewBox="0 0 92 33" fill="none" xmlns="http://www.w3.org/2000/svg">
<rect x="1" y="0.0800781" width="90.23" height="32" rx="8" fill="url(#paint0_linear_3009_203)"/>
<rect x="2" y="1.08008" width="88.23" height="30" rx="8" fill="url(#paint1_linear_3009_203)"/>
<rect x="9.5" y="8.58008" width="15" height="15" rx="3.5" fill="black"/>
<rect x="9.5" y="8.58008" width="15" height="15" rx="3.5" stroke="#FFFF92"/>
<path d="M16.6481 20.6505C16.7562 20.7136 16.8786 20.7464 17.002 20.7464L17.0016 20.7446C17.1266 20.7446 17.249 20.7121 17.3571 20.6487L20.7298 18.6738C20.9477 18.5453 21.0837 18.3065 21.0837 18.0505V14.104C21.0837 13.8472 20.9477 13.6083 20.7298 13.4807L17.3571 11.5049C17.1452 11.3825 16.8614 11.3825 16.6478 11.5049L13.2708 13.4799C13.0521 13.6066 12.917 13.8463 12.917 14.1031V18.0497C12.917 18.3056 13.0521 18.5453 13.2708 18.6738L14.1558 19.1908C14.5848 19.4049 14.7385 19.4049 14.9335 19.4049C15.5677 19.4049 15.9325 19.0153 15.9325 18.3373V14.4404C15.9325 14.3848 15.8886 14.342 15.8354 14.342H15.4081C15.3532 14.342 15.3102 14.3848 15.3102 14.4404V18.3356C15.3102 18.637 15.0036 18.9366 14.502 18.6823L13.5782 18.1413C13.5461 18.1233 13.5258 18.0874 13.5258 18.0497V14.1031C13.5258 14.0655 13.5466 14.0286 13.5793 14.0098L16.9509 12.0374C16.9821 12.0186 17.0235 12.0186 17.0547 12.0374L20.4269 14.0098C20.4589 14.0295 20.4791 14.0646 20.4791 14.104V18.0505C20.4791 18.0882 20.4588 18.125 20.4276 18.143L17.0541 20.1171C17.0251 20.1342 16.9807 20.1342 16.9495 20.1171L16.0843 19.5966C16.0585 19.5812 16.0256 19.5761 16.0004 19.5906C15.761 19.7284 15.7155 19.7464 15.4912 19.826C15.4357 19.8455 15.3537 19.8792 15.5219 19.9746L16.6481 20.6505Z" fill="#FFFF92"/>
<path d="M16.2578 16.7638C16.2578 17.3399 16.5673 18.0268 18.0434 18.0268L18.0385 18.0309C19.1076 18.0309 19.7207 17.6037 19.7207 16.8589C19.7207 16.1201 19.2283 15.9232 18.1913 15.7836C17.1442 15.6432 17.0378 15.5705 17.0378 15.3213C17.0378 15.1159 17.1282 14.8419 17.9043 14.8419C18.5976 14.8419 18.8525 14.9935 18.9581 15.4669C18.9674 15.5114 19.0071 15.5439 19.0527 15.5439H19.4909C19.518 15.5439 19.5441 15.532 19.5627 15.5123C19.5813 15.4917 19.5914 15.4643 19.5889 15.4361C19.5214 14.6194 18.986 14.2393 17.9059 14.2393C16.9441 14.2393 16.3699 14.6502 16.3699 15.3402C16.3699 16.0893 16.9407 16.2956 17.8645 16.388C18.9691 16.4976 19.0552 16.6611 19.0552 16.8812C19.0552 17.2634 18.7529 17.4262 18.0419 17.4262C17.1493 17.4262 16.9534 17.1992 16.8875 16.749C16.8799 16.7009 16.8394 16.6653 16.7913 16.6653H16.3555C16.3014 16.6653 16.2578 16.709 16.2578 16.7638Z" fill="#FFFF92"/>
<path d="M40.4835 10.3983V20.5801H39.2903L33.742 12.5858H33.6426V20.5801H32.4096V10.3983H33.6028L39.171 18.4125H39.2704V10.3983H40.4835ZM45.8938 20.7392C45.2044 20.7392 44.5996 20.5751 44.0792 20.247C43.5622 19.9189 43.1578 19.4598 42.8661 18.8699C42.5778 18.2799 42.4336 17.5905 42.4336 16.8017C42.4336 16.0062 42.5778 15.3118 42.8661 14.7186C43.1578 14.1253 43.5622 13.6646 44.0792 13.3365C44.5996 13.0083 45.2044 12.8443 45.8938 12.8443C46.5832 12.8443 47.1865 13.0083 47.7035 13.3365C48.2239 13.6646 48.6282 14.1253 48.9166 14.7186C49.2082 15.3118 49.3541 16.0062 49.3541 16.8017C49.3541 17.5905 49.2082 18.2799 48.9166 18.8699C48.6282 19.4598 48.2239 19.9189 47.7035 20.247C47.1865 20.5751 46.5832 20.7392 45.8938 20.7392ZM45.8938 19.6852C46.4175 19.6852 46.8484 19.551 47.1865 19.2825C47.5245 19.014 47.7748 18.661 47.9372 18.2235C48.0996 17.786 48.1808 17.3121 48.1808 16.8017C48.1808 16.2913 48.0996 15.8156 47.9372 15.3748C47.7748 14.934 47.5245 14.5777 47.1865 14.3059C46.8484 14.0341 46.4175 13.8983 45.8938 13.8983C45.3702 13.8983 44.9393 14.0341 44.6012 14.3059C44.2632 14.5777 44.0129 14.934 43.8505 15.3748C43.6881 15.8156 43.6069 16.2913 43.6069 16.8017C43.6069 17.3121 43.6881 17.786 43.8505 18.2235C44.0129 18.661 44.2632 19.014 44.6012 19.2825C44.9393 19.551 45.3702 19.6852 45.8938 19.6852ZM54.0286 20.7392C53.3922 20.7392 52.8305 20.5784 52.3432 20.2569C51.856 19.9321 51.4749 19.4747 51.1998 18.8848C50.9247 18.2915 50.7871 17.5905 50.7871 16.7818C50.7871 15.9797 50.9247 15.2837 51.1998 14.6937C51.4749 14.1038 51.8577 13.648 52.3482 13.3265C52.8387 13.005 53.4055 12.8443 54.0485 12.8443C54.5457 12.8443 54.9384 12.9271 55.2268 13.0929C55.5184 13.2553 55.7405 13.4409 55.893 13.6497C56.0487 13.8552 56.1697 14.0242 56.2559 14.1568H56.3553V10.3983H57.5286V20.5801H56.3951V19.4068H56.2559C56.1697 19.546 56.0471 19.7217 55.888 19.9338C55.7289 20.1426 55.5019 20.3298 55.2069 20.4956C54.9119 20.658 54.5191 20.7392 54.0286 20.7392ZM54.1877 19.6852C54.6583 19.6852 55.0561 19.5626 55.3809 19.3173C55.7057 19.0687 55.9526 18.7257 56.1216 18.2882C56.2907 17.8474 56.3752 17.3386 56.3752 16.7619C56.3752 16.1918 56.2923 15.693 56.1266 15.2654C55.9609 14.8346 55.7156 14.4998 55.3908 14.2612C55.066 14.0192 54.665 13.8983 54.1877 13.8983C53.6905 13.8983 53.2762 14.0259 52.9448 14.2811C52.6167 14.533 52.3698 14.876 52.204 15.3102C52.0416 15.7411 51.9604 16.225 51.9604 16.7619C51.9604 17.3055 52.0433 17.7993 52.209 18.2434C52.378 18.6842 52.6266 19.0356 52.9547 19.2974C53.2862 19.5559 53.6972 19.6852 54.1877 19.6852ZM63.0421 20.7392C62.3063 20.7392 61.6716 20.5768 61.138 20.252C60.6077 19.9238 60.1983 19.4664 59.91 18.8798C59.625 18.2898 59.4824 17.6038 59.4824 16.8216C59.4824 16.0394 59.625 15.35 59.91 14.7534C60.1983 14.1535 60.5994 13.6861 61.1131 13.3514C61.6302 13.0133 62.2334 12.8443 62.9228 12.8443C63.3205 12.8443 63.7133 12.9106 64.101 13.0431C64.4888 13.1757 64.8418 13.3912 65.16 13.6895C65.4782 13.9844 65.7317 14.3755 65.9207 14.8627C66.1096 15.35 66.204 15.9499 66.204 16.6625V17.1596H60.3177V16.1454H65.0108C65.0108 15.7145 64.9247 15.3301 64.7523 14.992C64.5833 14.6539 64.3413 14.3871 64.0265 14.1916C63.7149 13.996 63.347 13.8983 62.9228 13.8983C62.4555 13.8983 62.0511 14.0143 61.7097 14.2463C61.3716 14.475 61.1115 14.7733 60.9292 15.1412C60.7469 15.5091 60.6557 15.9035 60.6557 16.3244V17.0005C60.6557 17.5772 60.7552 18.0661 60.954 18.4672C61.1562 18.8649 61.4363 19.1681 61.7942 19.377C62.1522 19.5824 62.5681 19.6852 63.0421 19.6852C63.3503 19.6852 63.6287 19.6421 63.8773 19.5559C64.1292 19.4664 64.3463 19.3339 64.5286 19.1582C64.7109 18.9792 64.8518 18.7572 64.9512 18.492L66.0847 18.8102C65.9654 19.1947 65.7649 19.5327 65.4832 19.8244C65.2014 20.1127 64.8534 20.3381 64.4391 20.5005C64.0248 20.6596 63.5591 20.7392 63.0421 20.7392ZM68.8439 20.6596C68.5987 20.6596 68.3882 20.5718 68.2126 20.3961C68.0369 20.2205 67.9491 20.01 67.9491 19.7647C67.9491 19.5195 68.0369 19.309 68.2126 19.1333C68.3882 18.9577 68.5987 18.8699 68.8439 18.8699C69.0892 18.8699 69.2997 18.9577 69.4753 19.1333C69.651 19.309 69.7388 19.5195 69.7388 19.7647C69.7388 19.9271 69.6974 20.0763 69.6145 20.2122C69.535 20.3481 69.4273 20.4574 69.2914 20.5403C69.1588 20.6199 69.0097 20.6596 68.8439 20.6596ZM71.8443 12.9437H73.0176V21.1369C73.0176 21.6075 72.9364 22.0152 72.774 22.3599C72.6149 22.7046 72.3729 22.9714 72.0481 23.1603C71.7266 23.3493 71.3206 23.4437 70.8301 23.4437C70.7903 23.4437 70.7506 23.4437 70.7108 23.4437C70.671 23.4437 70.6312 23.4437 70.5915 23.4437V22.35C70.6312 22.35 70.6677 22.35 70.7008 22.35C70.734 22.35 70.7704 22.35 70.8102 22.35C71.1682 22.35 71.43 22.2439 71.5957 22.0318C71.7614 21.823 71.8443 21.5247 71.8443 21.1369V12.9437ZM72.421 11.671C72.1923 11.671 71.9951 11.5931 71.8294 11.4373C71.667 11.2815 71.5858 11.0943 71.5858 10.8755C71.5858 10.6568 71.667 10.4695 71.8294 10.3137C71.9951 10.158 72.1923 10.0801 72.421 10.0801C72.6497 10.0801 72.8452 10.158 73.0077 10.3137C73.1734 10.4695 73.2562 10.6568 73.2562 10.8755C73.2562 11.0943 73.1734 11.2815 73.0077 11.4373C72.8452 11.5931 72.6497 11.671 72.421 11.671ZM80.5757 14.6539L79.5217 14.9522C79.4554 14.7766 79.3576 14.6059 79.2284 14.4402C79.1024 14.2711 78.9301 14.1319 78.7113 14.0225C78.4926 13.9132 78.2125 13.8585 77.8711 13.8585C77.4038 13.8585 77.0143 13.9662 76.7028 14.1816C76.3946 14.3938 76.2404 14.6639 76.2404 14.992C76.2404 15.2837 76.3465 15.514 76.5586 15.6831C76.7707 15.8521 77.1022 15.993 77.5529 16.1056L78.6865 16.3841C79.3692 16.5498 79.878 16.8033 80.2127 17.1447C80.5475 17.4828 80.7149 17.9186 80.7149 18.4522C80.7149 18.8897 80.5889 19.2808 80.337 19.6255C80.0884 19.9702 79.7404 20.242 79.293 20.4409C78.8455 20.6397 78.3252 20.7392 77.7319 20.7392C76.953 20.7392 76.3084 20.5701 75.798 20.2321C75.2875 19.894 74.9644 19.4002 74.8285 18.7505L75.9421 18.4721C76.0482 18.8831 76.2487 19.1913 76.5437 19.3968C76.842 19.6023 77.2314 19.7051 77.712 19.7051C78.2589 19.7051 78.6931 19.5891 79.0146 19.3571C79.3394 19.1217 79.5018 18.84 79.5018 18.5119C79.5018 18.2467 79.409 18.0247 79.2234 17.8457C79.0378 17.6634 78.7527 17.5275 78.3683 17.438L77.0955 17.1397C76.3962 16.974 75.8825 16.7172 75.5544 16.3691C75.2295 16.0178 75.0671 15.5787 75.0671 15.0517C75.0671 14.6208 75.1881 14.2396 75.4301 13.9082C75.6753 13.5768 76.0084 13.3166 76.4294 13.1277C76.8536 12.9387 77.3342 12.8443 77.8711 12.8443C78.6268 12.8443 79.2201 13.01 79.6509 13.3414C80.0851 13.6729 80.3934 14.1104 80.5757 14.6539Z" fill="#F1F7FE" fill-opacity="0.71"/>
<defs>
<linearGradient id="paint0_linear_3009_203" x1="46.115" y1="0.0800781" x2="46.115" y2="32.0801" gradientUnits="userSpaceOnUse">
<stop stop-color="#D6EBFD" stop-opacity="0.19"/>
<stop offset="1" stop-color="#D3EDF8" stop-opacity="0.114"/>
</linearGradient>
<linearGradient id="paint1_linear_3009_203" x1="46.115" y1="1.08008" x2="46.115" y2="31.0801" gradientUnits="userSpaceOnUse">
<stop stop-color="#D8F4F6" stop-opacity="0.035"/>
<stop offset="1"/>
</linearGradient>
</defs>
</svg>
