<svg width="73" height="33" viewBox="0 0 73 33" fill="none" xmlns="http://www.w3.org/2000/svg">
<rect x="9.9502" y="8.08008" width="16" height="16" rx="4" fill="black"/>
<rect x="10.4502" y="8.58008" width="15" height="15" rx="3.5" stroke="#D6EBFD" stroke-opacity="0.19"/>
<path d="M18.5908 19.5804H22.4941C22.6181 19.5804 22.7398 19.5454 22.8472 19.4788C22.9546 19.4122 23.0437 19.3165 23.1057 19.2012C23.1676 19.0859 23.2003 18.9551 23.2002 18.822C23.2001 18.6889 23.1675 18.5582 23.1054 18.4429L20.484 13.5679C20.4221 13.4527 20.3329 13.3569 20.2256 13.2904C20.1183 13.2238 19.9965 13.1888 19.8726 13.1888C19.7486 13.1888 19.6268 13.2238 19.5195 13.2904C19.4121 13.3569 19.323 13.4527 19.2611 13.5679L18.5908 14.8153L17.2803 12.3761C17.2183 12.2609 17.1292 12.1652 17.0218 12.0986C16.9144 12.0321 16.7926 11.9971 16.6686 11.9971C16.5447 11.9971 16.4229 12.0321 16.3155 12.0986C16.2081 12.1652 16.1189 12.2609 16.0569 12.3761L12.795 18.4429C12.7329 18.5582 12.7002 18.6889 12.7002 18.822C12.7001 18.9551 12.7327 19.0859 12.7947 19.2012C12.8567 19.3165 12.9458 19.4122 13.0532 19.4788C13.1605 19.5454 13.2823 19.5804 13.4063 19.5804H15.8565C16.8273 19.5804 17.5431 19.1225 18.0358 18.2293L19.2318 16.0054L19.8723 14.8153L21.7949 18.3902H19.2318L18.5908 19.5804ZM15.8165 18.389L14.1066 18.3886L16.6698 13.6223L17.9487 16.0054L17.0924 17.5983C16.7652 18.1778 16.3936 18.389 15.8165 18.389Z" fill="#F1F7FE" fill-opacity="0.71"/>
<path d="M41.4557 10.3983V20.5801H40.2625L34.7142 12.5858H34.6148V20.5801H33.3818V10.3983H34.575L40.1432 18.4125H40.2426V10.3983H41.4557ZM48.5762 17.4579V12.9437H49.7495V20.5801H48.5762V19.2875H48.4967C48.3177 19.6752 48.0393 20.005 47.6615 20.2768C47.2836 20.5453 46.8063 20.6795 46.2296 20.6795C45.7524 20.6795 45.3281 20.5751 44.9569 20.3663C44.5857 20.1542 44.294 19.836 44.0819 19.4118C43.8698 18.9842 43.7637 18.4456 43.7637 17.796V12.9437H44.937V17.7164C44.937 18.2733 45.0928 18.7174 45.4043 19.0488C45.7192 19.3803 46.1203 19.546 46.6075 19.546C46.8991 19.546 47.1958 19.4714 47.4974 19.3223C47.8023 19.1731 48.0575 18.9444 48.263 18.6362C48.4718 18.3279 48.5762 17.9352 48.5762 17.4579ZM52.7735 12.9437L54.603 16.0659L56.4326 12.9437H57.7849L55.3189 16.7619L57.7849 20.5801H56.4326L54.603 17.617L52.7735 20.5801H51.4212L53.8474 16.7619L51.4212 12.9437H52.7735ZM62.7801 12.9437V13.938H58.8227V12.9437H62.7801ZM59.9761 11.1142H61.1494V18.3926C61.1494 18.724 61.1974 18.9726 61.2936 19.1383C61.393 19.3007 61.5189 19.4101 61.6714 19.4664C61.8272 19.5195 61.9912 19.546 62.1636 19.546C62.2928 19.546 62.3989 19.5394 62.4818 19.5261C62.5646 19.5095 62.6309 19.4963 62.6806 19.4863L62.9193 20.5403C62.8397 20.5701 62.7287 20.6 62.5862 20.6298C62.4436 20.6629 62.263 20.6795 62.0443 20.6795C61.7128 20.6795 61.388 20.6083 61.0698 20.4657C60.755 20.3232 60.4931 20.1061 60.2843 19.8145C60.0788 19.5228 59.9761 19.1549 59.9761 18.7108V11.1142Z" fill="#F1F7FE" fill-opacity="0.71"/>
</svg>
