<svg width="103" height="33" viewBox="0 0 103 33" fill="none" xmlns="http://www.w3.org/2000/svg">
<rect x="9.51953" y="8.08008" width="16" height="16" rx="4" fill="black"/>
<rect x="10.0195" y="8.58008" width="15" height="15" rx="3.5" stroke="#D6EBFD" stroke-opacity="0.19"/>
<path fill-rule="evenodd" clip-rule="evenodd" d="M15.6599 12.7625L17.3897 13.9996C17.4288 14.0268 17.4744 14.0417 17.5212 14.0425C17.568 14.0422 17.6138 14.0272 17.6526 13.9996L19.3838 12.7584C19.4511 12.7079 19.4882 12.6238 19.4815 12.537C19.4747 12.4502 19.4251 12.3736 19.351 12.3354L17.6211 11.4381C17.5555 11.4047 17.479 11.4047 17.4134 11.4381L15.6888 12.3354C15.6133 12.3738 15.563 12.4519 15.5571 12.5401C15.5511 12.6283 15.5903 12.7132 15.6599 12.7625ZM18.1088 14.3879C18.1089 14.4699 18.1472 14.5466 18.2113 14.5931L19.5981 15.5861C19.6869 15.6502 19.8057 15.6422 19.886 15.5667L21.0493 14.4766C21.1012 14.4281 21.13 14.3578 21.1279 14.2847C21.1259 14.2116 21.0932 14.1433 21.0388 14.098L19.928 13.1675C19.8473 13.1003 19.7347 13.0958 19.6494 13.1564L18.2113 14.1868C18.1484 14.2324 18.1102 14.3073 18.1088 14.3879ZM14.6595 15.7386C14.7156 15.7914 14.7444 15.8692 14.7371 15.948C14.7298 16.0274 14.6861 16.0978 14.6201 16.1366L13.7919 16.6567C13.708 16.7093 13.602 16.7017 13.5255 16.6377C13.4491 16.5736 13.418 16.4664 13.4475 16.3682L13.7538 15.3586C13.7778 15.2787 13.8387 15.217 13.9155 15.195C13.9922 15.1716 14.0749 15.1921 14.1337 15.2491L14.6595 15.7386ZM19.1512 15.844L17.654 14.7706C17.5744 14.7145 17.4706 14.7145 17.3911 14.7706L15.8938 15.844C15.8343 15.8872 15.7965 15.9566 15.7913 16.0326C15.7874 16.1092 15.8164 16.1835 15.8702 16.2351L17.3661 17.6372C17.4092 17.6775 17.4648 17.6997 17.5225 17.6996C17.5801 17.6996 17.6357 17.6774 17.6789 17.6372L19.1748 16.2351C19.2288 16.1838 19.2574 16.1091 19.2524 16.0326C19.2482 15.9566 19.2108 15.8869 19.1512 15.844ZM15.1577 15.5667L13.9957 14.4766C13.9434 14.4269 13.9145 14.3553 13.9168 14.2811C13.9181 14.2079 13.9504 14.1392 14.0049 14.0939L15.1156 13.1578C15.1969 13.0908 15.3098 13.0863 15.3956 13.1467L16.8324 14.1771C16.8991 14.2229 16.9393 14.3011 16.9393 14.3851C16.9393 14.469 16.8991 14.5473 16.8324 14.5931L15.4469 15.5861C15.3576 15.6499 15.2386 15.6419 15.1577 15.5667ZM21.1243 17.1324L19.9412 16.3904C19.8534 16.335 19.7415 16.3462 19.6652 16.4181L18.2192 17.7703C18.1582 17.8274 18.1296 17.9137 18.1435 17.9985C18.1574 18.0832 18.2119 18.1543 18.2875 18.1863L20.2935 19.0378C20.321 19.0499 20.3505 19.056 20.3802 19.0559C20.4733 19.0562 20.5579 18.9986 20.5958 18.9089L21.2176 17.4499C21.2682 17.3345 21.2279 17.1974 21.1243 17.1324ZM21.2886 15.3586L21.5948 16.3682H21.5922C21.6149 16.4438 21.602 16.5261 21.5576 16.59C21.5132 16.6539 21.4425 16.6915 21.3675 16.6914C21.3253 16.6915 21.284 16.6795 21.2478 16.6567L20.4184 16.1366C20.3537 16.097 20.3115 16.0266 20.3053 15.948C20.2976 15.8691 20.3264 15.7911 20.3829 15.7386L20.9087 15.2477C20.9681 15.1919 21.0502 15.1716 21.1269 15.1936C21.2036 15.2165 21.2643 15.2785 21.2886 15.3586ZM16.9008 17.9978C16.9149 17.9133 16.8865 17.8272 16.8258 17.7703L15.3799 16.4181C15.3035 16.3462 15.1917 16.335 15.1038 16.3904L13.9207 17.1324C13.8183 17.1977 13.7778 17.333 13.8261 17.4485L14.4492 18.9075C14.5008 19.0291 14.6343 19.0861 14.7515 19.0365L16.7562 18.1849C16.8318 18.1532 16.8865 18.0823 16.9008 17.9978ZM17.6106 18.4138L19.2195 19.0961C19.2982 19.1314 19.3526 19.2089 19.3615 19.2986C19.3717 19.3894 19.3332 19.4787 19.2616 19.5302L17.6513 20.702C17.6127 20.7304 17.5669 20.7459 17.5199 20.7464C17.4728 20.7457 17.4271 20.7302 17.3884 20.702L15.7795 19.5302C15.7076 19.4788 15.6687 19.3896 15.6782 19.2986C15.689 19.2079 15.7453 19.1305 15.8255 19.0961L17.4345 18.4138C17.491 18.3902 17.554 18.3902 17.6106 18.4138Z" fill="#F1F7FE" fill-opacity="0.71"/>
<path d="M32.946 20.5801V10.3983H36.3863C37.1818 10.3983 37.8347 10.5341 38.3451 10.8059C38.8555 11.0744 39.2334 11.444 39.4786 11.9146C39.7239 12.3852 39.8465 12.9205 39.8465 13.5204C39.8465 14.1203 39.7239 14.6523 39.4786 15.1163C39.2334 15.5803 38.8572 15.9449 38.3501 16.21C37.843 16.4719 37.195 16.6028 36.4062 16.6028H33.6221V15.4892H36.3664C36.91 15.4892 37.3475 15.4096 37.6789 15.2505C38.0137 15.0914 38.2556 14.8661 38.4048 14.5744C38.5572 14.2794 38.6335 13.9281 38.6335 13.5204C38.6335 13.1127 38.5572 12.7565 38.4048 12.4515C38.2523 12.1466 38.0087 11.9113 37.674 11.7456C37.3392 11.5765 36.8967 11.492 36.3465 11.492H34.1789V20.5801H32.946ZM37.7386 16.0062L40.2443 20.5801H38.8124L36.3465 16.0062H37.7386ZM44.8616 20.7392C44.1258 20.7392 43.4911 20.5768 42.9575 20.252C42.4272 19.9238 42.0179 19.4664 41.7295 18.8798C41.4445 18.2898 41.302 17.6038 41.302 16.8216C41.302 16.0394 41.4445 15.35 41.7295 14.7534C42.0179 14.1535 42.4189 13.6861 42.9327 13.3514C43.4497 13.0133 44.0529 12.8443 44.7423 12.8443C45.14 12.8443 45.5328 12.9106 45.9206 13.0431C46.3084 13.1757 46.6613 13.3912 46.9795 13.6895C47.2977 13.9844 47.5513 14.3755 47.7402 14.8627C47.9291 15.35 48.0236 15.9499 48.0236 16.6625V17.1596H42.1372V16.1454H46.8304C46.8304 15.7145 46.7442 15.3301 46.5719 14.992C46.4028 14.6539 46.1609 14.3871 45.846 14.1916C45.5345 13.996 45.1666 13.8983 44.7423 13.8983C44.275 13.8983 43.8706 14.0143 43.5292 14.2463C43.1912 14.475 42.931 14.7733 42.7487 15.1412C42.5664 15.5091 42.4753 15.9035 42.4753 16.3244V17.0005C42.4753 17.5772 42.5747 18.0661 42.7736 18.4672C42.9757 18.8649 43.2558 19.1681 43.6138 19.377C43.9717 19.5824 44.3877 19.6852 44.8616 19.6852C45.1699 19.6852 45.4483 19.6421 45.6969 19.5559C45.9488 19.4664 46.1658 19.3339 46.3481 19.1582C46.5304 18.9792 46.6713 18.7572 46.7707 18.492L47.9042 18.8102C47.7849 19.1947 47.5844 19.5327 47.3027 19.8244C47.021 20.1127 46.6729 20.3381 46.2586 20.5005C45.8443 20.6596 45.3787 20.7392 44.8616 20.7392ZM52.6919 20.7392C52.0555 20.7392 51.4937 20.5784 51.0065 20.2569C50.5193 19.9321 50.1381 19.4747 49.8631 18.8848C49.588 18.2915 49.4504 17.5905 49.4504 16.7818C49.4504 15.9797 49.588 15.2837 49.8631 14.6937C50.1381 14.1038 50.521 13.648 51.0115 13.3265C51.502 13.005 52.0688 12.8443 52.7118 12.8443C53.2089 12.8443 53.6017 12.9271 53.89 13.0929C54.1817 13.2553 54.4038 13.4409 54.5562 13.6497C54.712 13.8552 54.833 14.0242 54.9192 14.1568H55.0186V10.3983H56.1919V20.5801H55.0584V19.4068H54.9192C54.833 19.546 54.7104 19.7217 54.5513 19.9338C54.3922 20.1426 54.1651 20.3298 53.8702 20.4956C53.5752 20.658 53.1824 20.7392 52.6919 20.7392ZM52.851 19.6852C53.3216 19.6852 53.7193 19.5626 54.0442 19.3173C54.369 19.0687 54.6159 18.7257 54.7849 18.2882C54.954 17.8474 55.0385 17.3386 55.0385 16.7619C55.0385 16.1918 54.9556 15.693 54.7899 15.2654C54.6242 14.8346 54.3789 14.4998 54.0541 14.2612C53.7293 14.0192 53.3283 13.8983 52.851 13.8983C52.3538 13.8983 51.9395 14.0259 51.6081 14.2811C51.28 14.533 51.033 14.876 50.8673 15.3102C50.7049 15.7411 50.6237 16.225 50.6237 16.7619C50.6237 17.3055 50.7066 17.7993 50.8723 18.2434C51.0413 18.6842 51.2899 19.0356 51.618 19.2974C51.9495 19.5559 52.3604 19.6852 52.851 19.6852ZM60.2338 20.5801L57.9071 12.9437H59.14L60.7906 18.7903H60.8702L62.5008 12.9437H63.7537L65.3645 18.7704H65.444L67.0946 12.9437H68.3275L66.0008 20.5801H64.8474L63.177 14.7136H63.0577L61.3872 20.5801H60.2338ZM72.7212 20.7392C72.0318 20.7392 71.4269 20.5751 70.9066 20.247C70.3895 19.9189 69.9852 19.4598 69.6935 18.8699C69.4051 18.2799 69.261 17.5905 69.261 16.8017C69.261 16.0062 69.4051 15.3118 69.6935 14.7186C69.9852 14.1253 70.3895 13.6646 70.9066 13.3365C71.4269 13.0083 72.0318 12.8443 72.7212 12.8443C73.4106 12.8443 74.0138 13.0083 74.5308 13.3365C75.0512 13.6646 75.4556 14.1253 75.7439 14.7186C76.0356 15.3118 76.1814 16.0062 76.1814 16.8017C76.1814 17.5905 76.0356 18.2799 75.7439 18.8699C75.4556 19.4598 75.0512 19.9189 74.5308 20.247C74.0138 20.5751 73.4106 20.7392 72.7212 20.7392ZM72.7212 19.6852C73.2449 19.6852 73.6757 19.551 74.0138 19.2825C74.3519 19.014 74.6021 18.661 74.7645 18.2235C74.9269 17.786 75.0081 17.3121 75.0081 16.8017C75.0081 16.2913 74.9269 15.8156 74.7645 15.3748C74.6021 14.934 74.3519 14.5777 74.0138 14.3059C73.6757 14.0341 73.2449 13.8983 72.7212 13.8983C72.1975 13.8983 71.7666 14.0341 71.4286 14.3059C71.0905 14.5777 70.8403 14.934 70.6779 15.3748C70.5155 15.8156 70.4343 16.2913 70.4343 16.8017C70.4343 17.3121 70.5155 17.786 70.6779 18.2235C70.8403 18.661 71.0905 19.014 71.4286 19.2825C71.7666 19.551 72.1975 19.6852 72.7212 19.6852ZM81.0747 20.7392C80.3853 20.7392 79.7804 20.5751 79.2601 20.247C78.743 19.9189 78.3387 19.4598 78.047 18.8699C77.7586 18.2799 77.6145 17.5905 77.6145 16.8017C77.6145 16.0062 77.7586 15.3118 78.047 14.7186C78.3387 14.1253 78.743 13.6646 79.2601 13.3365C79.7804 13.0083 80.3853 12.8443 81.0747 12.8443C81.7641 12.8443 82.3673 13.0083 82.8844 13.3365C83.4047 13.6646 83.8091 14.1253 84.0974 14.7186C84.3891 15.3118 84.5349 16.0062 84.5349 16.8017C84.5349 17.5905 84.3891 18.2799 84.0974 18.8699C83.8091 19.4598 83.4047 19.9189 82.8844 20.247C82.3673 20.5751 81.7641 20.7392 81.0747 20.7392ZM81.0747 19.6852C81.5984 19.6852 82.0292 19.551 82.3673 19.2825C82.7054 19.014 82.9556 18.661 83.118 18.2235C83.2804 17.786 83.3616 17.3121 83.3616 16.8017C83.3616 16.2913 83.2804 15.8156 83.118 15.3748C82.9556 14.934 82.7054 14.5777 82.3673 14.3059C82.0292 14.0341 81.5984 13.8983 81.0747 13.8983C80.551 13.8983 80.1202 14.0341 79.7821 14.3059C79.444 14.5777 79.1938 14.934 79.0314 15.3748C78.869 15.8156 78.7878 16.2913 78.7878 16.8017C78.7878 17.3121 78.869 17.786 79.0314 18.2235C79.1938 18.661 79.444 19.014 79.7821 19.2825C80.1202 19.551 80.551 19.6852 81.0747 19.6852ZM89.2095 20.7392C88.5731 20.7392 88.0113 20.5784 87.5241 20.2569C87.0369 19.9321 86.6557 19.4747 86.3806 18.8848C86.1055 18.2915 85.968 17.5905 85.968 16.7818C85.968 15.9797 86.1055 15.2837 86.3806 14.6937C86.6557 14.1038 87.0385 13.648 87.5291 13.3265C88.0196 13.005 88.5864 12.8443 89.2294 12.8443C89.7265 12.8443 90.1193 12.9271 90.4076 13.0929C90.6993 13.2553 90.9213 13.4409 91.0738 13.6497C91.2296 13.8552 91.3506 14.0242 91.4367 14.1568H91.5362V10.3983H92.7095V20.5801H91.5759V19.4068H91.4367C91.3506 19.546 91.2279 19.7217 91.0688 19.9338C90.9097 20.1426 90.6827 20.3298 90.3877 20.4956C90.0928 20.658 89.7 20.7392 89.2095 20.7392ZM89.3686 19.6852C89.8392 19.6852 90.2369 19.5626 90.5617 19.3173C90.8865 19.0687 91.1335 18.7257 91.3025 18.2882C91.4715 17.8474 91.5561 17.3386 91.5561 16.7619C91.5561 16.1918 91.4732 15.693 91.3075 15.2654C91.1418 14.8346 90.8965 14.4998 90.5717 14.2612C90.2469 14.0192 89.8458 13.8983 89.3686 13.8983C88.8714 13.8983 88.4571 14.0259 88.1257 14.2811C87.7975 14.533 87.5506 14.876 87.3849 15.3102C87.2225 15.7411 87.1413 16.225 87.1413 16.7619C87.1413 17.3055 87.2241 17.7993 87.3899 18.2434C87.5589 18.6842 87.8075 19.0356 88.1356 19.2974C88.467 19.5559 88.878 19.6852 89.3686 19.6852Z" fill="#F1F7FE" fill-opacity="0.71"/>
</svg>
