<svg width="81" height="33" viewBox="0 0 81 33" fill="none" xmlns="http://www.w3.org/2000/svg">
<rect x="9.87988" y="8.08008" width="16" height="16" rx="4" fill="black"/>
<rect x="10.3799" y="8.58008" width="15" height="15" rx="3.5" stroke="#D6EBFD" stroke-opacity="0.19"/>
<path d="M18.3164 11.4131C20.7528 11.4131 21.9635 12.5558 21.9635 14.3812C21.9635 15.7466 21.1116 16.637 19.9606 16.7854C20.9322 16.9783 21.5001 17.5274 21.6048 18.6108L21.62 18.81L21.6331 18.9962L21.6446 19.1704L21.6525 19.3018L21.661 19.4568L21.6655 19.5453L21.6718 19.6858L21.6768 19.8185L21.6793 19.8948L21.6828 20.0171L21.6857 20.1568L21.6867 20.2243L21.6887 20.4201L21.6893 20.6243V20.7464H19.1768L19.177 20.6955L19.1779 20.5966L19.1794 20.5003L19.1837 20.2669L19.1848 20.1886L19.1857 20.0659L19.1856 19.9874L19.1848 19.9052L19.1838 19.8406L19.1817 19.7502L19.1788 19.6543L19.1748 19.5524L19.1697 19.4438L19.1666 19.3868L19.1615 19.2977L19.1556 19.2041L19.1464 19.072L19.1385 18.9669C19.1362 18.9345 19.1336 18.9029 19.1306 18.872L19.1242 18.8112C19.0413 18.0935 18.7524 17.8002 18.2577 17.7024L18.216 17.6947C18.1879 17.6899 18.1591 17.6856 18.1297 17.6819L18.0851 17.6767C18.0777 17.6759 18.0701 17.6752 18.0625 17.6745L18.0165 17.6704L17.9696 17.6672L17.9217 17.6647L17.8734 17.6628L17.8241 17.6616L17.7739 17.6611L13.7969 17.661V15.7169H17.8681C17.9346 15.7169 17.9991 15.7156 18.0616 15.7131L18.1233 15.7101L18.1837 15.7062L18.2427 15.7015C18.2525 15.7007 18.2622 15.6998 18.2717 15.6988L18.3287 15.6928C18.3662 15.6884 18.4028 15.6834 18.4385 15.6778L18.4914 15.669C19.152 15.551 19.4823 15.2054 19.4823 14.531C19.4823 13.7741 18.9443 13.3155 17.8681 13.3155H13.7969V11.4131H18.3164ZM16.4535 19.2971C16.7831 19.2971 16.921 19.4775 16.9702 19.6502L16.9766 19.675L16.982 19.6996L16.9854 19.719L16.9869 19.7286L16.9894 19.7475L16.9913 19.7661L16.992 19.7752L16.993 19.7931L16.9933 19.8018L16.9935 19.8189V20.7464H13.7969V19.2971H16.4535Z" fill="#F1F7FE" fill-opacity="0.71"/>
<path d="M33.2778 20.5801V10.3983H36.7181C37.5136 10.3983 38.1665 10.5341 38.6769 10.8059C39.1873 11.0744 39.5652 11.444 39.8104 11.9146C40.0557 12.3852 40.1783 12.9205 40.1783 13.5204C40.1783 14.1203 40.0557 14.6523 39.8104 15.1163C39.5652 15.5803 39.189 15.9449 38.6819 16.21C38.1748 16.4719 37.5268 16.6028 36.738 16.6028H33.9539V15.4892H36.6982C37.2418 15.4892 37.6793 15.4096 38.0107 15.2505C38.3455 15.0914 38.5874 14.8661 38.7366 14.5744C38.889 14.2794 38.9653 13.9281 38.9653 13.5204C38.9653 13.1127 38.889 12.7565 38.7366 12.4515C38.5841 12.1466 38.3405 11.9113 38.0057 11.7456C37.671 11.5765 37.2285 11.492 36.6783 11.492H34.5107V20.5801H33.2778ZM38.0704 16.0062L40.5761 20.5801H39.1442L36.6783 16.0062H38.0704ZM45.1934 20.7392C44.4576 20.7392 43.8229 20.5768 43.2893 20.252C42.759 19.9238 42.3497 19.4664 42.0613 18.8798C41.7763 18.2898 41.6338 17.6038 41.6338 16.8216C41.6338 16.0394 41.7763 15.35 42.0613 14.7534C42.3497 14.1535 42.7507 13.6861 43.2644 13.3514C43.7815 13.0133 44.3847 12.8443 45.0741 12.8443C45.4718 12.8443 45.8646 12.9106 46.2524 13.0431C46.6402 13.1757 46.9931 13.3912 47.3113 13.6895C47.6295 13.9844 47.8831 14.3755 48.072 14.8627C48.2609 15.35 48.3554 15.9499 48.3554 16.6625V17.1596H42.469V16.1454H47.1622C47.1622 15.7145 47.076 15.3301 46.9037 14.992C46.7346 14.6539 46.4927 14.3871 46.1778 14.1916C45.8662 13.996 45.4984 13.8983 45.0741 13.8983C44.6068 13.8983 44.2024 14.0143 43.861 14.2463C43.523 14.475 43.2628 14.7733 43.0805 15.1412C42.8982 15.5091 42.8071 15.9035 42.8071 16.3244V17.0005C42.8071 17.5772 42.9065 18.0661 43.1054 18.4672C43.3075 18.8649 43.5876 19.1681 43.9456 19.377C44.3035 19.5824 44.7195 19.6852 45.1934 19.6852C45.5017 19.6852 45.7801 19.6421 46.0287 19.5559C46.2805 19.4664 46.4976 19.3339 46.6799 19.1582C46.8622 18.9792 47.0031 18.7572 47.1025 18.492L48.236 18.8102C48.1167 19.1947 47.9162 19.5327 47.6345 19.8244C47.3528 20.1127 47.0047 20.3381 46.5904 20.5005C46.1761 20.6596 45.7105 20.7392 45.1934 20.7392ZM50.1402 20.5801V12.9437H51.2737V14.1369H51.3731C51.5322 13.7292 51.7891 13.4127 52.1437 13.1873C52.4984 12.9586 52.9243 12.8443 53.4214 12.8443C53.9252 12.8443 54.3445 12.9586 54.6792 13.1873C55.0173 13.4127 55.2808 13.7292 55.4697 14.1369H55.5493C55.7448 13.7425 56.0381 13.4293 56.4292 13.1973C56.8203 12.9619 57.2893 12.8443 57.8362 12.8443C58.5189 12.8443 59.0774 13.0581 59.5116 13.4856C59.9458 13.9099 60.1629 14.5711 60.1629 15.4693V20.5801H58.9896V15.4693C58.9896 14.9058 58.8355 14.5031 58.5272 14.2612C58.219 14.0192 57.8561 13.8983 57.4385 13.8983C56.9015 13.8983 56.4856 14.0607 56.1906 14.3855C55.8956 14.707 55.7481 15.1146 55.7481 15.6085V20.5801H54.5549V15.35C54.5549 14.9158 54.4141 14.5661 54.1323 14.301C53.8506 14.0325 53.4877 13.8983 53.0436 13.8983C52.7386 13.8983 52.4536 13.9795 52.1885 14.1419C51.9266 14.3043 51.7145 14.5297 51.5521 14.818C51.393 15.103 51.3135 15.4328 51.3135 15.8074V20.5801H50.1402ZM62.3081 20.5801V12.9437H63.4814V20.5801H62.3081ZM62.9047 11.671C62.676 11.671 62.4788 11.5931 62.3131 11.4373C62.1507 11.2815 62.0695 11.0943 62.0695 10.8755C62.0695 10.6568 62.1507 10.4695 62.3131 10.3137C62.4788 10.158 62.676 10.0801 62.9047 10.0801C63.1334 10.0801 63.329 10.158 63.4914 10.3137C63.6571 10.4695 63.7399 10.6568 63.7399 10.8755C63.7399 11.0943 63.6571 11.2815 63.4914 11.4373C63.329 11.5931 63.1334 11.671 62.9047 11.671ZM66.5054 12.9437L68.3349 16.0659L70.1645 12.9437H71.5168L69.0508 16.7619L71.5168 20.5801H70.1645L68.3349 17.617L66.5054 20.5801H65.1531L67.5793 16.7619L65.1531 12.9437H66.5054Z" fill="#F1F7FE" fill-opacity="0.71"/>
</svg>
